{"title":"Diary of a Sex Addict.2008[x264][AC3(5.1)Sp/Fr_Audio-Nordic_Sub.","uid":5367404,"size":1441119699,"categoryP":"video","categoryS":"movies","magnet":"?xt=urn:btih:fe02df93f2d73f5baef9841dc7ba36c9d56af9cf&amp;dn=Diary+of+a+Sex+Addict.2008%5Bx264%5D%5BAC3%285.1%29Sp%2FFr_Audio-Nordic_Sub.&amp;tr=udp%3A%2F%2Ftracker.openbittorrent.com%3A80&amp;tr=udp%3A%2F%2Fopen.demonii.com%3A1337&amp;tr=udp%3A%2F%2Ftracker.coppersurfer.tk%3A6969&amp;tr=udp%3A%2F%2Fexodus.desync.com%3A6969","seeders":1,"leechers":0,"uploader":"Zen_Bud","files":-1,"time":1266311054,"description":"Diary of a Sex Addict2008 aka Diario de una ninfÃƒÂ³mana[x264][AC3(5.1)Sp/Fr_Audio-Nordic_Sub.mkv\n\nGeneral\nComplete name                    : Diary of a Sex Addict.mkv\nFormat                           : Matroska\nFile size                        : 1.34 GiB\nDuration                         : 1h 37mn\nOverall bit rate                 : 1 977 Kbps\n\n\nVideo\nID                               : 1\nFormat                           : AVC\nDuration                         : 1h 37mn\nBit rate                         : 1 490 Kbps\nWidth                            : 718 pixels\nHeight                           : 438 pixels\nDisplay aspect ratio             : 2.35:1\nFrame rate                       : 25.000 fps\nResolution                       : 8 bits\nColorimetry                      : 4:2:0\nScan type                        : Progressive\nBits/(Pixel*Frame)               : 0.189\nStream size                      : 1.01 GiB (75%)\nWriting library                  : x264 core 79\n              \n\nAudio\nID                               : 2\nFormat                           : AC-3\nFormat/Info                      : Audio Coding 3\nCodec ID                         : A_AC3\nDuration                         : 1h 37mn\nBit rate mode                    : Constant\nBit rate                         : 448 Kbps\nChannel(s)                       : 6 channels\nChannel positions                : Front: L C R, Surround: L R, LFE\nSampling rate                    : 48.0 KHz\nStream size                      : 311 MiB (23%)\nLanguage                         : Spanish/French\n\nText #1\nLanguage                         : Swedish\n\nText #2\nLanguage                         : Norwegian\n\nText #3\nLanguage                         : Danish\n\nText #4\nLanguage                         : Finnish\n\n","torrent":{"xt":"urn:btih:fe02df93f2d73f5baef9841dc7ba36c9d56af9cf","amp;dn":"Diary+of+a+Sex+Addict.2008%5Bx264%5D%5BAC3%285.1%29Sp%2FFr_Audio-Nordic_Sub.","amp;tr":["udp%3A%2F%2Ftracker.openbittorrent.com%3A80","udp%3A%2F%2Fopen.demonii.com%3A1337","udp%3A%2F%2Ftracker.coppersurfer.tk%3A6969","udp%3A%2F%2Fexodus.desync.com%3A6969"],"infoHash":"fe02df93f2d73f5baef9841dc7ba36c9d56af9cf","infoHashBuffer":{"type":"Buffer","data":[254,2,223,147,242,215,63,91,174,249,132,29,199,186,54,201,213,106,249,207]},"announce":[],"urlList":[]}}